<mxfile host="app.diagrams.net" modified="2022-03-14T22:52:02.222Z" agent="5.0 (Windows NT 10.0; Win64; x64) AppleWebKit/537.36 (KHTML, like Gecko) Chrome/99.0.4844.51 Safari/537.36" etag="fJJdNq6hYrJmi0gerVBp" version="17.1.0" type="github">
  <diagram name="Page-1" id="c7558073-3199-34d8-9f00-42111426c3f3">
    <mxGraphModel dx="1422" dy="762" grid="1" gridSize="10" guides="1" tooltips="1" connect="1" arrows="1" fold="1" page="1" pageScale="1" pageWidth="826" pageHeight="1169" background="none" math="0" shadow="0">
      <root>
        <mxCell id="0" />
        <mxCell id="1" parent="0" />
        <mxCell id="YHxFl_oo0xOTdW9-zQhx-97" value="" style="rounded=0;whiteSpace=wrap;html=1;" vertex="1" parent="1">
          <mxGeometry x="150" y="20" width="490" height="60" as="geometry" />
        </mxCell>
        <mxCell id="YHxFl_oo0xOTdW9-zQhx-98" value="" style="rounded=0;whiteSpace=wrap;html=1;" vertex="1" parent="1">
          <mxGeometry x="168" y="555" width="490" height="60" as="geometry" />
        </mxCell>
        <mxCell id="YHxFl_oo0xOTdW9-zQhx-99" value="" style="endArrow=classic;startArrow=classic;html=1;rounded=0;entryX=0.25;entryY=1;entryDx=0;entryDy=0;exitX=0.25;exitY=0;exitDx=0;exitDy=0;" edge="1" parent="1" source="YHxFl_oo0xOTdW9-zQhx-98" target="YHxFl_oo0xOTdW9-zQhx-97">
          <mxGeometry width="50" height="50" relative="1" as="geometry">
            <mxPoint x="390" y="420" as="sourcePoint" />
            <mxPoint x="440" y="370" as="targetPoint" />
          </mxGeometry>
        </mxCell>
        <mxCell id="YHxFl_oo0xOTdW9-zQhx-101" value="" style="endArrow=classic;startArrow=classic;html=1;rounded=0;entryX=0.25;entryY=1;entryDx=0;entryDy=0;exitX=0.25;exitY=0;exitDx=0;exitDy=0;" edge="1" parent="1">
          <mxGeometry width="50" height="50" relative="1" as="geometry">
            <mxPoint x="548" y="545" as="sourcePoint" />
            <mxPoint x="540" y="80" as="targetPoint" />
          </mxGeometry>
        </mxCell>
        <mxCell id="YHxFl_oo0xOTdW9-zQhx-102" value="ws" style="text;html=1;align=center;verticalAlign=middle;resizable=0;points=[];autosize=1;strokeColor=none;fillColor=none;" vertex="1" parent="1">
          <mxGeometry x="495" y="340" width="30" height="20" as="geometry" />
        </mxCell>
        <mxCell id="YHxFl_oo0xOTdW9-zQhx-103" value="HTTP&lt;br&gt;" style="text;html=1;align=center;verticalAlign=middle;resizable=0;points=[];autosize=1;strokeColor=none;fillColor=none;" vertex="1" parent="1">
          <mxGeometry x="290" y="300" width="50" height="20" as="geometry" />
        </mxCell>
        <mxCell id="YHxFl_oo0xOTdW9-zQhx-104" value="SOURIS&lt;br&gt;Rejoindre partie&lt;br&gt;Deco" style="whiteSpace=wrap;html=1;aspect=fixed;" vertex="1" parent="1">
          <mxGeometry x="560" y="210" width="230" height="230" as="geometry" />
        </mxCell>
        <mxCell id="YHxFl_oo0xOTdW9-zQhx-105" value="game dto" style="whiteSpace=wrap;html=1;aspect=fixed;" vertex="1" parent="1">
          <mxGeometry x="150" y="270" width="80" height="80" as="geometry" />
        </mxCell>
        <mxCell id="YHxFl_oo0xOTdW9-zQhx-106" value="" style="endArrow=classic;startArrow=classic;html=1;rounded=0;" edge="1" parent="1">
          <mxGeometry width="50" height="50" relative="1" as="geometry">
            <mxPoint x="390" y="390" as="sourcePoint" />
            <mxPoint x="440" y="340" as="targetPoint" />
          </mxGeometry>
        </mxCell>
        <mxCell id="YHxFl_oo0xOTdW9-zQhx-107" value="" style="endArrow=classic;html=1;rounded=0;" edge="1" parent="1">
          <mxGeometry width="50" height="50" relative="1" as="geometry">
            <mxPoint x="390" y="390" as="sourcePoint" />
            <mxPoint x="440" y="340" as="targetPoint" />
          </mxGeometry>
        </mxCell>
        <mxCell id="YHxFl_oo0xOTdW9-zQhx-108" value="" style="ellipse;whiteSpace=wrap;html=1;" vertex="1" parent="1">
          <mxGeometry x="350" y="330" width="120" height="80" as="geometry" />
        </mxCell>
        <mxCell id="YHxFl_oo0xOTdW9-zQhx-109" value="" style="ellipse;whiteSpace=wrap;html=1;" vertex="1" parent="1">
          <mxGeometry x="168" y="20" width="72" height="60" as="geometry" />
        </mxCell>
        <mxCell id="YHxFl_oo0xOTdW9-zQhx-110" value="" style="ellipse;whiteSpace=wrap;html=1;" vertex="1" parent="1">
          <mxGeometry x="260" y="20" width="72" height="60" as="geometry" />
        </mxCell>
        <mxCell id="YHxFl_oo0xOTdW9-zQhx-111" value="" style="ellipse;whiteSpace=wrap;html=1;" vertex="1" parent="1">
          <mxGeometry x="350" y="20" width="72" height="60" as="geometry" />
        </mxCell>
        <mxCell id="YHxFl_oo0xOTdW9-zQhx-112" value="" style="ellipse;whiteSpace=wrap;html=1;" vertex="1" parent="1">
          <mxGeometry x="440" y="20" width="72" height="60" as="geometry" />
        </mxCell>
        <mxCell id="YHxFl_oo0xOTdW9-zQhx-113" value="" style="ellipse;whiteSpace=wrap;html=1;" vertex="1" parent="1">
          <mxGeometry x="540" y="20" width="72" height="60" as="geometry" />
        </mxCell>
        <mxCell id="YHxFl_oo0xOTdW9-zQhx-114" value="" style="rhombus;whiteSpace=wrap;html=1;" vertex="1" parent="1">
          <mxGeometry x="370" y="330" width="80" height="80" as="geometry" />
        </mxCell>
        <mxCell id="YHxFl_oo0xOTdW9-zQhx-116" value="" style="endArrow=classic;html=1;rounded=0;" edge="1" parent="1" target="YHxFl_oo0xOTdW9-zQhx-111">
          <mxGeometry width="50" height="50" relative="1" as="geometry">
            <mxPoint x="280" y="220" as="sourcePoint" />
            <mxPoint x="330" y="170" as="targetPoint" />
          </mxGeometry>
        </mxCell>
      </root>
    </mxGraphModel>
  </diagram>
</mxfile>
